<svg width="75" height="77" fill="none" xmlns="http://www.w3.org/2000/svg"><g clip-path="url(#clip0_2414_10151)" stroke="#000" stroke-miterlimit="10"><path d="M3.55 41.785C4.144 23.758 18.943 9.31 37.104 9.31c18.136 0 32.934 14.395 33.553 32.395"/><path d="M37.077 9.311a4.251 4.251 0 100-8.502 4.251 4.251 0 000 8.502zM23.764 69.098S46.514 43.6 57.055 43.166c0-.8-.324-1.103-.324-1.103M38 51.5s6.995-7.79 12.363-8.612c.195-.52 0-.888 0-.888m-15.019 7.552s6.234-6.754 9.437-7.49m-13.38 8.118s-1.948.67-3.182-1.277c-1.32-2.1-1.104-3.442-1.645-4.74-.54-1.256-1.84-2.1-1.84-2.1m9.766 11.86s.888-8.832 4.957-11.884"/><path d="M29.566 53.382s1.602-2.035 2.468-4.611c.888-2.64 2.121-5.368 4.048-6.732m-16-.039s2.468 2.208 2.966 4.373c.368 1.623 1.017 4.307 0 5.779-1.147 1.667-2.663 5.715-1.797 9.026H19M0 41.785h74.182"/></g><defs><clipPath id="clip0_2414_10151"><path fill="#fff" d="M0 0h74.182v76.2H0z"/></clipPath></defs></svg>