<svg width="75" height="77" fill="none" xmlns="http://www.w3.org/2000/svg"><path d="M22.477 56.21v13.622" stroke="#000"/><path d="M22.48 68.668l8.573 5.182H13.908l8.572-5.182zm31.356 2.215l10.003 3.19H43.833l10.003-3.19z" stroke="#000" stroke-linejoin="round"/><path d="M36.71 23.616L36.722 8.5h5.833l.014 15.116a31.5 31.5 0 002.93 13.237l.393.847a30.5 30.5 0 012.836 13.066l-.17 23.375H30.72l-.17-23.375A30.5 30.5 0 0133.386 37.7l.394-.847a31.501 31.501 0 002.93-13.237z" stroke="#000" stroke-linejoin="round"/><path d="M60.364 41.367l-.048.003c-1.01.098-1.816.093-2.562.088-.26-.002-.51-.003-.762 0-1.275.013-2.59-.008-3.9-.03-.803-.013-1.605-.026-2.394-.03-.32-.003-.634.005-.958.013-.703.017-1.449.036-2.387-.042a.516.516 0 00-.041-.002h-.327c-3.38 0-6.3-2.362-7.008-5.667a8.125 8.125 0 01.947-5.827l.147-.248h25.534l.146.248a8.124 8.124 0 01.947 5.827 7.166 7.166 0 01-7.007 5.667h-.327zM13.348 30.801l-.587-1.176h19.433l-.587 1.176a12.781 12.781 0 00-1.26 7.151l.966 8.483c.602 5.276-3.525 9.9-8.835 9.9-5.31 0-9.438-4.624-8.836-9.9l.967-8.483c.28-2.455-.159-4.94-1.261-7.151z" stroke="#000" stroke-linejoin="round"/><path d="M54 41v29.883M31 51.5h17.5M14.977 39.7h14.996M31 65h17.5" stroke="#000"/></svg>