<svg width="378" height="8" fill="none" xmlns="http://www.w3.org/2000/svg"><g clip-path="url(#clip0_5102_15118)"><path d="M377.973 1.73l-5.441 3.147a9.22 9.22 0 01-9.232 0l-3.018-1.745a9.22 9.22 0 00-9.232 0l-3.018 1.745a9.22 9.22 0 01-9.232 0l-3.018-1.745a9.22 9.22 0 00-9.232 0l-3.018 1.745a9.22 9.22 0 01-9.232 0l-3.018-1.745a9.22 9.22 0 00-9.232 0l-3.018 1.745a9.22 9.22 0 01-9.232 0l-3.018-1.745a9.22 9.22 0 00-9.232 0l-3.018 1.745a9.22 9.22 0 01-9.232 0l-3.018-1.745a9.22 9.22 0 00-9.232 0l-3.018 1.745a9.22 9.22 0 01-9.232 0l-5.411-3.13" stroke="#fff"/></g><g clip-path="url(#clip1_5102_15118)"><path d="M254.707 1.73l-5.44 3.147a9.22 9.22 0 01-9.232 0l-3.018-1.745a9.22 9.22 0 00-9.232 0l-3.018 1.745a9.22 9.22 0 01-9.232 0l-3.018-1.745a9.22 9.22 0 00-9.232 0l-3.018 1.745a9.22 9.22 0 01-9.232 0l-3.019-1.745a9.218 9.218 0 00-9.231 0l-3.019 1.745a9.218 9.218 0 01-9.231 0l-3.019-1.745a9.218 9.218 0 00-9.231 0l-3.019 1.745a9.218 9.218 0 01-9.231 0l-3.019-1.745a9.218 9.218 0 00-9.231 0l-3.019 1.745a9.218 9.218 0 01-9.231 0l-5.411-3.13" stroke="#fff"/></g><g clip-path="url(#clip2_5102_15118)"><path d="M132.113 1.73l-5.44 3.147a9.22 9.22 0 01-9.232 0l-3.018-1.745a9.22 9.22 0 00-9.232 0l-3.018 1.745a9.22 9.22 0 01-9.232 0l-3.018-1.745a9.22 9.22 0 00-9.232 0l-3.018 1.745a9.22 9.22 0 01-9.232 0l-3.018-1.745a9.22 9.22 0 00-9.232 0l-3.018 1.745a9.22 9.22 0 01-9.232 0l-3.018-1.745a9.22 9.22 0 00-9.232 0l-3.018 1.745a9.22 9.22 0 01-9.232 0l-3.018-1.745a9.22 9.22 0 00-9.232 0L4.173 4.877a9.22 9.22 0 01-9.232 0l-5.411-3.13" stroke="#fff"/></g><defs><clipPath id="clip0_5102_15118"><path fill="#fff" transform="rotate(180 189 3.79)" d="M0 0h132.764v7.376H0z"/></clipPath><clipPath id="clip1_5102_15118"><path fill="#fff" transform="rotate(180 122.618 3.79)" d="M0 0h122.929v7.376H0z"/></clipPath><clipPath id="clip2_5102_15118"><path fill="#fff" transform="rotate(180 61.154 3.79)" d="M0 0h127.846v7.376H0z"/></clipPath></defs></svg>