<svg width="312" height="10" fill="none" xmlns="http://www.w3.org/2000/svg"><g clip-path="url(#clip0_2939_11220)"><g clip-path="url(#clip1_2939_11220)"><path d="M412.473 1.82l-3.242 2.843a7.66 7.66 0 01-10.103 0v0a7.66 7.66 0 00-10.103 0v0a7.66 7.66 0 01-10.103 0v0a7.662 7.662 0 00-10.104 0v0a7.66 7.66 0 01-10.103 0v0a7.66 7.66 0 00-10.103 0v0a7.66 7.66 0 01-10.103 0v0a7.66 7.66 0 00-10.103 0v0a7.662 7.662 0 01-10.104 0v0a7.66 7.66 0 00-10.103 0v0a7.66 7.66 0 01-10.103 0l-3.218-2.822" stroke="#313131"/></g><g clip-path="url(#clip2_2939_11220)"><path d="M210.069 1.82l-3.242 2.843a7.66 7.66 0 01-10.103 0v0a7.66 7.66 0 00-10.103 0v0a7.662 7.662 0 01-10.104 0v0a7.66 7.66 0 00-10.103 0v0a7.66 7.66 0 01-10.103 0v0a7.66 7.66 0 00-10.103 0v0a7.66 7.66 0 01-10.103 0v0a7.66 7.66 0 00-10.103 0v0a7.662 7.662 0 01-10.104 0v0a7.66 7.66 0 00-10.103 0v0a7.66 7.66 0 01-10.103 0l-3.218-2.822" stroke="#313131"/></g><g clip-path="url(#clip3_2939_11220)"><path d="M311.197 1.82l-3.243 2.843a7.66 7.66 0 01-10.103 0v0a7.66 7.66 0 00-10.103 0v0a7.66 7.66 0 01-10.103 0v0a7.66 7.66 0 00-10.103 0v0a7.662 7.662 0 01-10.104 0v0a7.66 7.66 0 00-10.103 0v0a7.66 7.66 0 01-10.103 0v0a7.66 7.66 0 00-10.103 0v0a7.66 7.66 0 01-10.103 0v0a7.662 7.662 0 00-10.104 0v0a7.66 7.66 0 01-10.103 0l-3.218-2.822" stroke="#313131"/></g><g clip-path="url(#clip4_2939_11220)"><path d="M108.96 1.82l-3.242 2.843a7.66 7.66 0 01-10.103 0v0a7.661 7.661 0 00-10.103 0v0a7.661 7.661 0 01-10.103 0v0a7.661 7.661 0 00-10.104 0v0a7.661 7.661 0 01-10.103 0v0a7.661 7.661 0 00-10.103 0v0a7.661 7.661 0 01-10.103 0v0a7.661 7.661 0 00-10.103 0v0a7.661 7.661 0 01-10.103 0v0a7.661 7.661 0 00-10.104 0v0a7.661 7.661 0 01-10.103 0l-3.218-2.822" stroke="#313131"/></g></g><defs><clipPath id="clip0_2939_11220"><path fill="#fff" d="M0 0h312v10H0z"/></clipPath><clipPath id="clip1_2939_11220"><path fill="#fff" transform="rotate(180 206.248 4.586)" d="M0 0h109.496v9.225H0z"/></clipPath><clipPath id="clip2_2939_11220"><path fill="#fff" transform="rotate(180 101.129 4.586)" d="M0 0h101.386v9.225H0z"/></clipPath><clipPath id="clip3_2939_11220"><path fill="#fff" transform="rotate(180 151.692 4.586)" d="M0 0h101.386v9.225H0z"/></clipPath><clipPath id="clip4_2939_11220"><path fill="#fff" transform="rotate(180 50.436 4.586)" d="M0 0h105.441v9.225H0z"/></clipPath></defs></svg>