<svg width="20" height="21" fill="none" xmlns="http://www.w3.org/2000/svg"><g clip-path="url(#clip0_3298_16150)" fill-rule="evenodd" clip-rule="evenodd" fill="#001C3E"><path d="M10.075 20.29c-5.336 0-9.677-4.341-9.677-9.676C.398 5.277 4.74.937 10.075.937s9.676 4.34 9.676 9.677c0 5.334-4.34 9.675-9.676 9.675zm0-18.034c-4.609 0-8.358 3.749-8.358 8.357 0 4.609 3.75 8.358 8.358 8.358 4.608 0 8.358-3.75 8.358-8.357 0-4.61-3.75-8.359-8.358-8.359z"/><path d="M13.533 13.394H6.882c-.838 0-1.53-.368-2-1.065-.823-1.223-.737-3.078-.733-3.157a.33.33 0 01.329-.313h11.726a.33.33 0 01.33.316c.004.09.085 2.23-1.064 3.431-.501.523-1.152.788-1.937.788zM4.806 9.52c.013.542.106 1.673.624 2.442.35.521.826.774 1.452.774h6.65c.607 0 1.084-.19 1.46-.584.72-.752.857-2.039.88-2.632H4.806z"/><path d="M5.33 14.497a.33.33 0 01-.255-.538l.898-1.103a.33.33 0 01.511.416l-.899 1.104a.333.333 0 01-.256.12zm9.958 0a.328.328 0 01-.256-.12l-.899-1.105a.328.328 0 01.047-.463.328.328 0 01.464.047l.9 1.103a.33.33 0 01-.256.538zM4.475 9.515a.33.33 0 01-.33-.33V7.47a1.392 1.392 0 012.782 0 .33.33 0 11-.66 0 .732.732 0 00-1.462 0v1.716a.33.33 0 01-.33.33z"/></g><defs><clipPath id="clip0_3298_16150"><path fill="#fff" d="M0 0h20v21H0z"/></clipPath></defs></svg>