<svg width="20" height="20" fill="none" xmlns="http://www.w3.org/2000/svg"><g clip-path="url(#clip0_3298_16162)"><mask id="a" style="mask-type:luminance" maskUnits="userSpaceOnUse" x="0" y="0" width="20" height="20"><path d="M20 0H0v20h20V0z" fill="#fff"/></mask><g mask="url(#a)" fill-rule="evenodd" clip-rule="evenodd" fill="#001C3E"><path d="M14.817 14.625a.332.332 0 01-.29-.174l-1.605-2.995H9.436a.329.329 0 01-.327-.289L8.487 6.08A.329.329 0 119.141 6l.587 4.797h3.392a.33.33 0 01.29.174l1.538 2.871.748-.425a.33.33 0 11.326.573l-1.042.592a.334.334 0 01-.163.043z"/><path d="M9.232 16.023A3.529 3.529 0 015.707 12.5c0-1.123.515-2.152 1.415-2.824a.33.33 0 01.394.527 2.843 2.843 0 00-1.15 2.296 2.87 2.87 0 002.866 2.867 2.862 2.862 0 002.641-1.752.33.33 0 01.607.257 3.52 3.52 0 01-3.248 2.153zm2.597-6.934H9.142a.33.33 0 010-.66h2.687a.33.33 0 010 .66zM8.655 6.076a1.227 1.227 0 010-2.451 1.227 1.227 0 010 2.451zm0-1.792a.567.567 0 10.001 1.134.567.567 0 00-.001-1.134z"/></g><path d="M9.864 19.727C4.424 19.727 0 15.302 0 9.863 0 4.425 4.425 0 9.864 0c5.44 0 9.864 4.425 9.864 9.863 0 5.44-4.425 9.864-9.864 9.864zm0-18.383c-4.698 0-8.52 3.821-8.52 8.52 0 4.697 3.822 8.52 8.52 8.52 4.698 0 8.52-3.823 8.52-8.52 0-4.699-3.822-8.52-8.52-8.52z" fill="#0A2240"/></g><defs><clipPath id="clip0_3298_16162"><path fill="#fff" d="M0 0h20v20H0z"/></clipPath></defs></svg>