<svg width="20" height="20" fill="none" xmlns="http://www.w3.org/2000/svg"><g clip-path="url(#clip0_3298_16172)"><mask id="a" style="mask-type:luminance" maskUnits="userSpaceOnUse" x="0" y="0" width="20" height="20"><path d="M20 0H0v20h20V0z" fill="#fff"/></mask><g mask="url(#a)" fill-rule="evenodd" clip-rule="evenodd" fill="#001C3E"><path d="M13.72 15.05a.33.33 0 010-.33 4.136 4.136 0 00-1.512-5.644.33.33 0 11.33-.57 4.797 4.797 0 011.753 6.543.33.33 0 01-.57 0zm2.516-5.747a.33.33 0 01-.286-.165 4.136 4.136 0 00-5.643-1.512.33.33 0 11-.33-.571 4.795 4.795 0 016.544 1.753.33.33 0 01-.285.495zm-3.722-5.051a.328.328 0 01-.287.165 4.137 4.137 0 00-4.13 4.13.33.33 0 11-.66 0 4.795 4.795 0 014.79-4.79.33.33 0 01.287.495zm-6.236.694a.33.33 0 010 .33A4.136 4.136 0 007.79 10.92a.329.329 0 11-.329.572 4.796 4.796 0 01-1.754-6.545.33.33 0 01.571 0zm-2.515 5.749a.33.33 0 01.286.165 4.136 4.136 0 005.643 1.512.329.329 0 11.329.571 4.795 4.795 0 01-6.543-1.753.33.33 0 01.285-.495zm3.718 5.056a.328.328 0 01.287-.165 4.137 4.137 0 004.13-4.131.33.33 0 11.66 0 4.795 4.795 0 01-4.79 4.79.33.33 0 01-.287-.494z"/></g><path d="M9.864 19.727C4.424 19.727 0 15.302 0 9.863 0 4.425 4.425 0 9.864 0c5.44 0 9.864 4.425 9.864 9.863 0 5.44-4.425 9.864-9.864 9.864zm0-18.383c-4.698 0-8.52 3.821-8.52 8.52 0 4.697 3.822 8.52 8.52 8.52 4.698 0 8.52-3.823 8.52-8.52 0-4.699-3.822-8.52-8.52-8.52z" fill="#0A2240"/></g><defs><clipPath id="clip0_3298_16172"><path fill="#fff" d="M0 0h20v20H0z"/></clipPath></defs></svg>