<svg width="20" height="20" fill="none" xmlns="http://www.w3.org/2000/svg"><g clip-path="url(#clip0_3298_16187)"><path fill-rule="evenodd" clip-rule="evenodd" d="M12.63 10.18H7.521a.329.329 0 01-.276-.51L9.8 5.803c.123-.185.428-.185.55 0l2.555 3.867a.33.33 0 01.016.338.333.333 0 01-.29.173zm-4.496-.658h3.883l-1.942-2.94-1.94 2.94z" fill="#001C3E"/><path fill-rule="evenodd" clip-rule="evenodd" d="M10.075 14.05a.328.328 0 01-.275-.15l-2.555-3.867a.328.328 0 01.275-.511h5.11a.328.328 0 01.275.511L10.35 13.9a.328.328 0 01-.275.148zm-1.942-3.868l1.942 2.94 1.942-2.94H8.133z" fill="#001C3E"/><path fill-rule="evenodd" clip-rule="evenodd" d="M12.23 15.64H7.915a2.825 2.825 0 01-2.821-2.821V6.657a2.825 2.825 0 012.82-2.821h4.316a2.825 2.825 0 012.822 2.82v6.163a2.825 2.825 0 01-2.822 2.821zM7.915 4.495c-1.192 0-2.162.97-2.162 2.162v6.162c0 1.192.97 2.162 2.162 2.162h4.315c1.192 0 2.162-.97 2.162-2.162V6.657c0-1.192-.97-2.162-2.162-2.162H7.915z" fill="#001C3E"/><path d="M9.864 19.727C4.424 19.727 0 15.302 0 9.863 0 4.425 4.425 0 9.864 0c5.44 0 9.864 4.425 9.864 9.863 0 5.44-4.425 9.864-9.864 9.864zm0-18.383c-4.698 0-8.52 3.821-8.52 8.52 0 4.697 3.822 8.52 8.52 8.52 4.698 0 8.52-3.823 8.52-8.52 0-4.699-3.822-8.52-8.52-8.52z" fill="#0A2240"/></g><defs><clipPath id="clip0_3298_16187"><path fill="#fff" d="M0 0h20v20H0z"/></clipPath></defs></svg>