<svg width="20" height="20" fill="none" xmlns="http://www.w3.org/2000/svg"><g clip-path="url(#clip0_3298_16159)" fill="#0A2240"><path d="M9.864 19.727C4.424 19.727 0 15.302 0 9.863 0 4.425 4.425 0 9.864 0c5.44 0 9.864 4.425 9.864 9.863 0 5.44-4.425 9.864-9.864 9.864zm0-18.383c-4.698 0-8.52 3.821-8.52 8.52 0 4.697 3.822 8.52 8.52 8.52 4.698 0 8.52-3.823 8.52-8.52 0-4.699-3.822-8.52-8.52-8.52z"/><path d="M11.543 7.99c-.063-.988-.844-1.46-1.825-1.46-1.019 0-1.682.486-1.682 1.135 0 .633.564.849 1.144.983l1.913.454c1.355.32 2.582.74 2.582 2.76 0 1.908-1.621 2.771-3.835 2.771-2.367 0-4.04-.997-4.023-3.238h1.931c.076 1.366.956 1.776 2.118 1.776 1.15 0 1.854-.45 1.854-1.243 0-.78-.617-1.023-1.372-1.208l-1.92-.487c-1.08-.274-2.301-.735-2.301-2.47 0-1.796 1.594-2.677 3.643-2.677 2.048 0 3.662.94 3.664 2.905l-1.891-.001z"/></g><defs><clipPath id="clip0_3298_16159"><path fill="#fff" d="M0 0h20v20H0z"/></clipPath></defs></svg>