<svg width="20" height="20" fill="none" xmlns="http://www.w3.org/2000/svg"><g clip-path="url(#clip0_3298_16156)" fill="#0A2240"><path d="M14.042 5.984H5.934v1.673h3.06v7.79h1.987v-7.79h3.061V5.984z"/><path d="M9.864 19.727C4.424 19.727 0 15.302 0 9.863 0 4.425 4.425 0 9.864 0c5.44 0 9.864 4.425 9.864 9.863 0 5.44-4.425 9.864-9.864 9.864zm0-18.383c-4.698 0-8.52 3.821-8.52 8.52 0 4.697 3.822 8.52 8.52 8.52 4.698 0 8.52-3.823 8.52-8.52 0-4.699-3.822-8.52-8.52-8.52z"/></g><defs><clipPath id="clip0_3298_16156"><path fill="#fff" d="M0 0h20v20H0z"/></clipPath></defs></svg>