<svg width="20" height="20" fill="none" xmlns="http://www.w3.org/2000/svg"><g clip-path="url(#clip0_3298_16192)"><path fill-rule="evenodd" clip-rule="evenodd" d="M2.695 15.406l14.616-.03-1.01-.007 1.686-1.42L9.66 9.982a.33.33 0 01-.188-.298V7.95a.33.33 0 01.33-.33 1.96 1.96 0 001.957-1.957 1.96 1.96 0 00-1.957-1.957 1.96 1.96 0 00-1.958 1.957.33.33 0 11-.659 0 2.62 2.62 0 012.617-2.616 2.619 2.619 0 012.616 2.616 2.62 2.62 0 01-2.287 2.596v1.216l8.116 3.868-1.25 2.055a.33.33 0 01-.142.628l-.359.01-13.565.029" fill="#001C3E"/><path fill-rule="evenodd" clip-rule="evenodd" d="M1.125 13.441l6.843-3.215a.33.33 0 01.28.597l-6.856 3.22" fill="#001C3E"/><path d="M9.864 19.727C4.424 19.727 0 15.302 0 9.863 0 4.425 4.425 0 9.864 0c5.44 0 9.864 4.425 9.864 9.863 0 5.44-4.425 9.864-9.864 9.864zm0-18.383c-4.698 0-8.52 3.821-8.52 8.52 0 4.697 3.822 8.52 8.52 8.52 4.698 0 8.52-3.823 8.52-8.52 0-4.699-3.822-8.52-8.52-8.52z" fill="#0A2240"/></g><defs><clipPath id="clip0_3298_16192"><path fill="#fff" d="M0 0h20v20H0z"/></clipPath></defs></svg>