<svg width="20" height="20" fill="none" xmlns="http://www.w3.org/2000/svg"><g clip-path="url(#clip0_3298_16184)"><path d="M14.563 9.633c0 3.063-1.786 4.634-4.653 4.634H6.223V5H9.91c2.867 0 4.652 1.57 4.652 4.633zm-1.994 0c0-2.128-1.03-3.089-2.945-3.089H8.177v6.178h1.447c1.915 0 2.945-.96 2.945-3.089z" fill="#0C2340"/><path d="M9.864 19.727C4.424 19.727 0 15.302 0 9.863 0 4.425 4.425 0 9.864 0c5.44 0 9.864 4.425 9.864 9.863 0 5.44-4.425 9.864-9.864 9.864zm0-18.383c-4.698 0-8.52 3.821-8.52 8.52 0 4.697 3.822 8.52 8.52 8.52 4.698 0 8.52-3.823 8.52-8.52 0-4.699-3.822-8.52-8.52-8.52z" fill="#0A2240"/></g><defs><clipPath id="clip0_3298_16184"><path fill="#fff" d="M0 0h20v20H0z"/></clipPath></defs></svg>