<svg width="357" height="359" fill="none" xmlns="http://www.w3.org/2000/svg"><path d="M136.658 252.494c1.536.771 3.263.385 4.223-1.155.767-1.541.384-3.275-1.152-4.238-1.535-.77-3.263-.385-4.223 1.156-.959 1.541-.383 3.467 1.152 4.237zm130.9-49.112L357 179.5l-89.442-24.075 36.468-48.919-60.268 7.511 7.294-60.668-48.56 36.594L178.5 0l-23.8 89.943-48.56-36.594 7.294 60.668-60.46-7.318 36.468 48.919L0 179.5l89.442 24.075-36.468 48.919 60.46-7.319-7.294 60.668 48.56-36.593L178.5 359l23.8-89.943 48.752 36.786-7.294-60.86 60.46 7.319-36.66-48.92zm55.853-23.882h-52.782c0-4.815-.384-9.822-1.152-14.445l53.934 14.445zm-289.63 0h52.782c0 4.815.384 9.822 1.151 14.445L33.782 179.5zM240.879 71.068l-16.314 28.12c-4.415-2.505-8.254-4.43-12.86-6.164l29.174-21.956zm-17.466 40.445c-1.344 2.312-4.223 3.082-6.526 1.734-2.303-1.348-3.071-4.237-1.727-6.741 1.343-2.311 4.222-3.082 6.717-1.733 2.112 1.348 2.879 4.429 1.536 6.74zM178.5 33.897v52.964c-8.061 0-14.395 1.156-14.395 1.156l14.395-54.12zm-42.802 70.876c2.304-1.349 5.375-.578 6.718 1.733 1.344 2.311.576 5.393-1.727 6.741-2.304 1.348-5.374.578-6.718-1.734-1.344-2.311-.576-5.392 1.727-6.74zm-3.263-5.586c-4.414 2.504-7.869 5.008-11.708 8.089l-4.414-36.208 16.122 28.12zm-30.133 79.928c0 2.696-2.112 4.815-4.799 4.815-2.687 0-4.798-2.119-4.798-4.815 0-2.697 2.111-4.815 4.798-4.815s4.799 2.118 4.799 4.815zm-31.478-62.401l28.023 16.37c-2.495 4.43-4.415 8.282-6.142 12.904l-21.88-29.274zm0 125.38l28.023-16.371c2.495 4.43 4.99 7.897 8.061 11.941l-36.084 4.43zm45.489 45.838l16.314-28.312c4.415 2.504 8.254 4.43 12.86 6.163l-29.174 22.149zm17.658-40.445c1.344-2.312 4.223-3.082 6.718-1.734 2.303 1.348 3.071 4.43 1.727 6.741-1.343 2.311-4.222 3.082-6.526 1.733-2.495-1.54-3.263-4.429-1.919-6.74zm44.529 77.616v-52.964c4.798 0 9.597-.385 14.395-1.156l-14.395 54.12zm43.185-70.876c-2.303 1.349-5.374.578-6.717-1.733-1.344-2.311-.576-5.393 1.727-6.741 2.303-1.348 5.374-.578 6.718 1.734 1.343 2.311.576 5.2-1.728 6.74zm3.071 5.393c4.415-2.504 7.87-5.007 11.709-8.089l4.414 36.401-16.123-28.312zm-46.256-9.63c-38.771 0-70.056-31.585-70.056-70.49 0-38.905 31.285-70.49 70.056-70.49s70.056 31.585 70.056 70.49c0 38.905-31.285 70.49-70.056 70.49zm107.868-133.276l-28.023 16.37c-2.495-4.429-4.99-7.896-8.061-11.941l36.084-4.429zm-31.67 62.593c0-2.696 2.112-4.815 4.799-4.815 2.687 0 4.798 2.119 4.798 4.815 0 2.697-2.111 4.815-4.798 4.815-2.495.193-4.799-2.118-4.799-4.815zm9.789 33.512l21.881 29.275-28.023-16.371c2.495-4.237 4.415-8.281 6.142-12.904zM139.729 111.706c1.536-.77 1.919-2.696 1.152-4.237-.768-1.541-2.687-1.926-4.223-1.156-1.535.771-1.919 2.697-1.152 4.237.768 1.541 2.688 1.926 4.223 1.156zm-45.297 67.409c0 1.733 1.344 3.081 3.071 3.081 1.728 0 3.071-1.348 3.071-3.081 0-1.734-1.343-3.082-3.07-3.082-1.728 0-3.072 1.348-3.072 3.082zm123.223 68.179c-1.536.77-1.92 2.696-1.152 4.237s2.687 1.926 4.223 1.156c1.535-.771 1.919-2.697 1.151-4.237-.959-1.541-2.687-2.119-4.222-1.156zm45.105-67.987c0-1.733-1.344-3.081-3.071-3.081-1.728 0-3.071 1.348-3.071 3.081 0 1.734 1.343 3.082 3.071 3.082 1.535 0 3.071-1.348 3.071-3.082zm-42.034-72.994c-1.536-.77-3.263-.385-4.223 1.156-.768 1.541-.384 3.274 1.152 4.237 1.535.77 3.263.385 4.222-1.156.768-1.54.192-3.274-1.151-4.237z" fill="#D7E3EA"/></svg>