<svg width="63" height="64" fill="none" xmlns="http://www.w3.org/2000/svg"><path d="M53.89 53.76c0-.398-.202-.719-.606-.962-.398-.244-.888-.446-1.47-.606a21.082 21.082 0 01-1.726-.581 3.43 3.43 0 01-1.46-1.096c-.405-.51-.607-1.154-.607-1.935 0-.963.385-1.784 1.154-2.465.775-.68 1.78-1.021 3.014-1.021.486 0 .957.058 1.41.174.455.11.825.244 1.113.399.293.149.548.304.764.465.221.154.379.29.473.406l.15.166-1.528 1.62a3.352 3.352 0 00-.282-.283c-.117-.116-.366-.269-.747-.457a2.638 2.638 0 00-1.18-.282c-.486 0-.88.124-1.178.374-.293.249-.44.55-.44.904 0 .399.2.72.598.963.404.238.89.44 1.46.606.576.166 1.152.36 1.727.582a3.413 3.413 0 011.478 1.095c.404.51.606 1.154.606 1.935 0 1.101-.401 2-1.203 2.698-.797.697-1.899 1.046-3.305 1.046-.553 0-1.09-.07-1.61-.208-.515-.133-.94-.293-1.278-.481a7.817 7.817 0 01-.88-.573 3.489 3.489 0 01-.548-.49l-.191-.208 1.535-1.527c.078.089.186.205.324.349.144.138.46.326.947.564.487.238.996.357 1.527.357.614 0 1.093-.144 1.436-.431a1.36 1.36 0 00.523-1.096zm-19.721 3.488V45.344h5.272c1.178 0 2.152.379 2.922 1.137.775.753 1.162 1.677 1.162 2.773 0 .476-.075.921-.224 1.336-.15.415-.327.75-.532 1.005a4.7 4.7 0 01-.614.656 2.33 2.33 0 01-.54.373l-.215.116 2.548 4.508h-2.723l-2.29-4.167h-2.21v4.167H34.17zm6.807-7.994c0-.465-.155-.85-.465-1.154-.304-.305-.689-.457-1.154-.457h-2.631v3.147h2.632c.464 0 .849-.147 1.153-.44.31-.3.465-.665.465-1.096zm-17.401 5.703h6.375v2.291h-8.932V45.344h8.758v2.3h-6.201v2.382h6.2v2.291h-6.2v2.64zM7.11 45.344h4.424c1.732 0 3.185.575 4.358 1.727 1.174 1.15 1.76 2.56 1.76 4.225 0 1.666-.586 3.074-1.76 4.226-1.173 1.15-2.626 1.726-4.358 1.726H7.11V45.344zm4.424 2.3H9.666v7.313h1.868c.985 0 1.826-.354 2.524-1.063.697-.708 1.046-1.571 1.046-2.59 0-1.023-.34-1.89-1.021-2.598-.681-.709-1.53-1.063-2.549-1.063zm44.651-9.46l-8.666.002V26.28h2.556v9.614l6.11-.002v2.291zm-20.181.002l3.252-11.905h2.556l-3.251 11.905h-2.557zm-12.117-2.848c.52.537 1.143.806 1.868.806.725 0 1.345-.269 1.86-.806.514-.537.772-1.203.772-2V26.28h2.548v7.057c0 1.45-.492 2.664-1.477 3.644-.986.974-2.223 1.461-3.711 1.461-1.484 0-2.718-.487-3.703-1.46-.985-.98-1.478-2.195-1.478-3.645V26.28h2.549v7.057c0 .791.257 1.458.772 2zm-11.382 2.848H7.11V26.28h5.106c1.08 0 1.97.316 2.673.947.708.63 1.063 1.364 1.063 2.2 0 .315-.045.617-.133.904a2.394 2.394 0 01-.34.706 4.255 4.255 0 01-.416.49 2.047 2.047 0 01-.332.282l-.14.083a3.176 3.176 0 01.68.407c.227.16.426.338.598.531.171.194.326.46.464.797.144.332.216.69.216 1.071 0 .952-.379 1.771-1.137 2.457-.758.687-1.727 1.03-2.906 1.03zM9.666 36.06h2.715c.465 0 .85-.147 1.154-.44.31-.294.465-.656.465-1.088 0-.432-.155-.794-.465-1.087-.305-.3-.69-.449-1.154-.449H9.666v3.064zm2.374-7.654H9.666v2.556h2.374c.421 0 .753-.116.997-.348.243-.233.365-.543.365-.93s-.122-.697-.365-.93c-.244-.232-.576-.348-.997-.348zm37.94-11.332h6.201v2.291h-8.758V7.462h8.758v2.3H49.98v2.382h6.201v2.291H49.98v2.64zM31.72 7.46h10.837v2.3h-4.14v9.606H35.87V9.76h-4.15v-2.3zM20.895 19.366L24.147 7.46h2.557l-3.252 11.905h-2.557zm-8.217-3.496c0-.398-.202-.72-.606-.963-.398-.243-.888-.446-1.469-.606a21.08 21.08 0 01-1.727-.581 3.432 3.432 0 01-1.46-1.096c-.405-.51-.607-1.154-.607-1.934 0-.963.385-1.785 1.154-2.466.775-.68 1.78-1.02 3.013-1.02.488 0 .958.057 1.412.173.454.111.825.244 1.112.399.294.15.548.304.764.465.221.155.38.29.473.407l.15.166-1.528 1.618a3.352 3.352 0 00-.282-.282c-.116-.116-.365-.268-.747-.456a2.638 2.638 0 00-1.18-.283c-.486 0-.88.125-1.178.374-.293.249-.44.55-.44.905 0 .398.2.72.598.963.404.238.89.44 1.46.606.576.166 1.152.36 1.728.58a3.414 3.414 0 011.477 1.097c.404.509.606 1.154.606 1.934 0 1.101-.4 2-1.203 2.698-.797.697-1.899 1.046-3.305 1.046-.553 0-1.09-.07-1.61-.207-.515-.133-.94-.294-1.278-.482a7.819 7.819 0 01-.88-.573 3.494 3.494 0 01-.548-.49l-.191-.207 1.536-1.528c.077.089.185.205.323.35.144.137.46.326.947.564.487.238.996.357 1.527.357.615 0 1.093-.144 1.436-.432a1.36 1.36 0 00.523-1.096z" fill="#866D4B"/></svg>