<svg width="48" height="49" fill="none" xmlns="http://www.w3.org/2000/svg"><path d="M34.767 18.984h.238a5 5 0 015 5v16.328a5 5 0 01-5 5h-22.21a5 5 0 01-5-5V23.985a5 5 0 015-5h13.112" stroke="#866D4B"/><path d="M34.8 19.491v-6.71H13.001v6.203m-1.88-3.101h25.413m-25.341-3.102h25.413m-18.179-.091a6.285 6.285 0 1110.947 0" stroke="#866D4B"/><circle cx="19.584" cy="38.73" r="6.582" stroke="#866D4B"/><ellipse cx="34.376" cy="38.727" rx="4.317" ry="6.582" transform="rotate(36.338 34.376 38.727)" stroke="#866D4B"/><path d="M21.693 32.427c2.394-.736 4.99-.022 6.412 1.974.814 1.141 1.107 2.509.931 3.849a6.256 6.256 0 01-1.326 3.078" stroke="#866D4B"/><path d="M25.985 40.496c1.858.685 3.035 1.616 2.91 2.465-.17 1.154-2.689 1.76-5.825 1.477m-7.88-10.455c-1.727-1.526-3.771-2.067-5.238-1.19-2.046 1.223-2.193 4.744-.328 7.864 1.637 2.737 4.277 4.256 6.283 3.763" stroke="#866D4B"/></svg>