<svg width="48" height="49" fill="none" xmlns="http://www.w3.org/2000/svg"><path d="M45.659 21.568c-5.081-6.526-13.013-10.724-21.924-10.724-8.608 0-16.3 3.916-21.394 10.063m32.576 9.007a14.14 14.14 0 00-11.182-5.469 14.136 14.136 0 00-10.95 5.18m16.633 4.616a7.162 7.162 0 00-5.683-2.796 7.159 7.159 0 00-5.521 2.594" stroke="#866D4B"/><path d="M40.384 25.598c-3.869-4.94-9.888-8.114-16.649-8.114-6.572 0-12.444 3-16.32 7.705" stroke="#866D4B"/><circle cx="24" cy="37.41" r=".527" stroke="#866D4B"/></svg>