<svg width="48" height="49" fill="none" xmlns="http://www.w3.org/2000/svg"><path d="M23.344 10.023a1 1 0 011.312 0l2.723 2.365a1 1 0 00.742.242l3.594-.314a1 1 0 011.061.771l.813 3.515a1 1 0 00.459.631l3.09 1.86a1 1 0 01.406 1.247l-1.408 3.32a1 1 0 000 .781l1.408 3.32a1 1 0 01-.405 1.248l-3.092 1.86a1 1 0 00-.458.63l-.813 3.515a1 1 0 01-1.061.771l-3.593-.313a1 1 0 00-.743.241l-2.723 2.366a1 1 0 01-1.312 0l-2.723-2.366a1 1 0 00-.742-.241l-3.594.313a1 1 0 01-1.061-.77l-.813-3.515a1 1 0 00-.458-.632L10.86 29.01a1 1 0 01-.405-1.247l1.408-3.32a1 1 0 000-.782l-1.408-3.32a1 1 0 01.405-1.248l3.091-1.858a1 1 0 00.46-.632l.812-3.515a1 1 0 011.061-.77l3.593.313a1 1 0 00.743-.242l2.723-2.365z" stroke="#866D4B"/><path d="M36.421 15.027l-1.22-5.276a1 1 0 00-1.061-.771l-4.973.433a1 1 0 01-.743-.241l-3.769-3.274a1 1 0 00-1.311 0l-3.769 3.274a1 1 0 01-.742.241l-4.974-.433a1 1 0 00-1.06.77l-1.22 5.277m24.842 18.05l-1.22 5.277a1 1 0 01-1.061.77l-4.973-.433a1 1 0 00-.743.242l-3.769 3.274a1 1 0 01-1.311 0l-3.769-3.274a1 1 0 00-.742-.242l-4.974.434a1 1 0 01-1.06-.771l-1.22-5.277" stroke="#866D4B"/><path d="M39.513 19.672h6.422L43.58 23.9l2.355 3.888h-6.422m-31.026.002H2.064l2.356-4.23-2.356-3.888h6.423" stroke="#866D4B" stroke-linejoin="round"/><path d="M20.34 23.433l3.245 3.59 4.311-5.953" stroke="#866D4B"/></svg>