<svg width="48" height="49" fill="none" xmlns="http://www.w3.org/2000/svg"><path d="M24.914 44.602V30.743a9 9 0 00-1.748-5.33l-2.262-3.078a8 8 0 01-1.554-4.737V6.523h-4.628v11.08a8 8 0 01-1.55 4.732l-2.26 3.08a9 9 0 00-1.744 5.324v13.863h15.746zM9.54 32.016h15.374m0 8.586H9.539m24.439-9.782V40m-11.481-3.687h-10.54m7.723-24.836h-4.909m-1.468 11.468l7.637 6.625" stroke="#866D4B"/><path d="M20.94 22.945l-3.82 3.313-3.818 3.312m15.824-14.507h9.706v10.904a4.853 4.853 0 01-4.853 4.853v0a4.853 4.853 0 01-4.853-4.853V15.063zm9.706 29.502a.27.27 0 01-.27.27h-9.165a.27.27 0 01-.271-.27v0a4.33 4.33 0 014.33-4.33h1.045a4.33 4.33 0 014.331 4.33v0z" stroke="#866D4B"/></svg>