<svg width="48" height="49" fill="none" xmlns="http://www.w3.org/2000/svg"><path d="M22.255 47.642l14.601-15.486" stroke="#866D4B"/><circle cx="24" cy="20.644" r="17.198" stroke="#866D4B"/><path d="M13.662 13.945A11.944 11.944 0 0012 20.042c0 2.394.702 4.625 1.91 6.498m20.428-12.595A11.944 11.944 0 0136 20.042a11.95 11.95 0 01-1.91 6.498M16.477 8.25v4.522a5 5 0 001.092 3.12l.823 1.03a5 5 0 011.093 3.12V32.04M18.51 8.25v5.023m2.035-5.023v5.023m5.622-4.687v23.43m2.433-.012v-7.241c0-1.42 0-2.987 1.824-4.15.196-5.272.39-11.886-4.752-11.886m-3.094-.477v5.023" stroke="#866D4B"/></svg>