<svg width="48" height="49" fill="none" xmlns="http://www.w3.org/2000/svg"><path d="M22.787 33.25v10.486m-5.242.006H28.03m2.445-11.812h14.67m-29.313-6.102h14.29m-7.334 7.422L12.536 22.112H33.04L22.788 33.25zm7.687-7.422h14.67v17.915h-14.67z" stroke="#866D4B"/><path d="M20.375 30.434l15.847-17.637 6.47 2.147M20.457 17.58c-3.854 0-6.415-4.775-6.415-4.775s1.81-4.774 6.415-4.774a4.774 4.774 0 110 9.548zM7.63 8.022c3.854 0 6.415 4.774 6.415 4.774s-1.81 4.774-6.415 4.774a4.774 4.774 0 110-9.548z" stroke="#866D4B"/></svg>