<svg width="48" height="49" fill="none" xmlns="http://www.w3.org/2000/svg"><path d="M35.802 17.805l1.268 2.035a9 9 0 011.36 4.757v20.107H27.921V24.597a9 9 0 011.36-4.757l1.267-2.035M18.88 24.25l1.423.914a9 9 0 014.14 7.575V44.63H8.697V32.735a9 9 0 014.135-7.572l1.419-.912m16.323-20.86h5.203v14.297h-5.203z" stroke="#866D4B"/><path d="M19.105 24.664V10.47h-5.078v14.195m13.895 1.515h10.507V38.5H27.922zM9.068 32.016h4.475m10.9 0h-4.821m4.82 8.586H9.069" stroke="#866D4B"/><circle cx="16.756" cy="32.019" r="2.785" stroke="#866D4B"/></svg>