<svg width="48" height="49" fill="none" xmlns="http://www.w3.org/2000/svg"><path d="M28.755 23.043c0 6.836-4.669 12.378-4.669 12.378s-4.669-5.542-4.669-12.378c0-6.837 4.669-12.379 4.669-12.379s4.67 5.542 4.67 12.379z" stroke="#866D4B" stroke-linejoin="round"/><path d="M14.922 27.866c-5.73.846-10.063 4.496-10.063 4.496s5.542 4.67 12.379 4.67c3.031 0 5.808-.919 7.96-1.94" stroke="#866D4B" stroke-linejoin="round"/><path d="M33.333 27.866c5.73.846 10.064 4.496 10.064 4.496s-5.543 4.67-12.379 4.67c-3.031 0-5.808-.919-7.96-1.94" stroke="#866D4B" stroke-linejoin="round"/><path d="M24.174 35.623s-7.292-2.794-9.324-7.699c-2.114-5.102 0-10.42 0-10.42s2.508.628 5.004 2.183" stroke="#866D4B" stroke-linejoin="round"/><path d="M23.993 35.623s7.292-2.794 9.324-7.699c2.114-5.102 0-10.42 0-10.42s-2.508.628-5.004 2.183m-7.867-7.763c1.76-3.006 3.631-4.893 3.631-4.893s1.872 1.887 3.63 4.893M6.345 28.442C2.997 30.306.861 32.443.861 32.443s3.01 3.012 7.485 5.002m33.309-9.003c3.348 1.864 5.484 4.001 5.484 4.001s-3.01 3.012-7.485 5.002M17.329 16.077c-2.182-.921-3.962-1.277-3.962-1.277s-1.263 2.442-1.623 5.763" stroke="#866D4B" stroke-linejoin="round"/><path d="M30.626 16.077c2.182-.921 3.962-1.277 3.962-1.277s1.263 2.442 1.623 5.763" stroke="#866D4B" stroke-linejoin="round"/></svg>